<svg width="134" height="40" viewBox="0 0 134 40" fill="none" id="svg27765815_1660">
<path d="M30.8085 1.05409H39.6482V38.8349H30.8085V34.896C26.9168 39.3897 22.1912 40 19.4671 40C7.79204 40 1.12061 30.2913 1.12061 19.9168C1.12061 7.60055 9.57109 0.0554785 19.5782 0.0554785C22.358 0.0554785 27.2504 0.776699 30.8085 5.43689V1.05409ZM10.1826 20.1387C10.1826 26.6297 14.2967 32.1775 20.6902 32.1775C26.2497 32.1775 31.42 28.1276 31.42 20.2497C31.42 11.9834 26.3053 8.04438 20.6902 8.04438C14.2967 7.9889 10.1826 13.4258 10.1826 20.1387ZM50.1557 1.05409H58.9953V4.43828C59.996 3.27323 61.4415 1.99723 62.6646 1.27601C64.3881 0.277392 66.0559 0 68.0574 0C70.2256 0 72.5606 0.332871 75.0068 1.77531L71.3931 9.76421C69.3916 8.48821 67.7794 8.43273 66.8898 8.43273C64.9996 8.43273 63.1094 8.71012 61.3859 10.4854C58.9397 13.0929 58.9397 16.699 58.9397 19.1956V38.8349H50.1001L50.1557 1.05409ZM80.6775 1.05409H89.5171V4.54924C92.4637 0.943134 95.9662 0.0554785 98.8571 0.0554785C102.804 0.0554785 106.529 1.94175 108.642 5.60333C111.811 1.10957 116.536 0.0554785 119.872 0.0554785C124.487 0.0554785 128.489 2.21914 130.658 5.99168C131.38 7.26768 132.659 10.0416 132.659 15.534V38.8904H123.819V18.1415C123.819 13.9251 123.375 12.2053 122.986 11.4286C122.43 9.98613 121.095 8.09986 117.926 8.09986C115.758 8.09986 113.868 9.26491 112.7 10.8738C111.144 13.0374 110.977 16.2552 110.977 19.473V38.9459H102.137V18.1415C102.137 13.9251 101.693 12.2053 101.303 11.4286C100.747 9.98613 99.4131 8.09986 96.2442 8.09986C94.0759 8.09986 92.1857 9.26491 91.0182 10.8738C89.4615 13.0374 89.2948 16.2552 89.2948 19.473V38.9459H80.6775V1.05409Z" fill="#9A9ACB"></path>
</svg>