<svg width="235" height="48" viewBox="0 0 235 48" fill="none" id="svg1985018010_9463">
<g clip-path="url(#svg1985018010_9463_clip0_14557_8912)">
<path d="M43.1879 43.3225C43.1893 43.5086 43.1168 43.6876 42.9863 43.8203C42.8558 43.953 42.6779 44.0285 42.4918 44.0302H4.46461C4.27851 44.0285 4.10068 43.953 3.97018 43.8203C3.83968 43.6876 3.76718 43.5086 3.76859 43.3225V26.4564C3.76775 26.3642 3.78509 26.2728 3.81963 26.1873C3.85417 26.1018 3.90522 26.024 3.96987 25.9583C4.03451 25.8925 4.11148 25.8402 4.19638 25.8042C4.28127 25.7683 4.37242 25.7494 4.46461 25.7487H42.4918C42.6779 25.7504 42.8558 25.8259 42.9863 25.9586C43.1168 26.0913 43.1893 26.2703 43.1879 26.4564V43.3225ZM3.76859 4.63748C3.76775 4.54529 3.78509 4.45384 3.81963 4.36836C3.85417 4.28288 3.90522 4.20505 3.96987 4.13932C4.03451 4.07358 4.11148 4.02124 4.19638 3.98529C4.28127 3.94933 4.37242 3.93047 4.46461 3.92977H32.637C32.7292 3.93047 32.8204 3.94933 32.9053 3.98529C32.9902 4.02124 33.0671 4.07358 33.1318 4.13932C33.1964 4.20505 33.2475 4.28288 33.282 4.36836C33.3165 4.45384 33.3339 4.54529 33.333 4.63748V21.5014C33.3345 21.6875 33.262 21.8666 33.1315 21.9993C33.001 22.132 32.8231 22.2074 32.637 22.2091H4.46461C4.27851 22.2074 4.10068 22.132 3.97018 21.9993C3.83968 21.8666 3.76718 21.6875 3.76859 21.5014V4.63748ZM45.9698 0.386969H0.98663C0.894076 0.387659 0.802575 0.406663 0.7174 0.442884C0.632226 0.479105 0.555064 0.531827 0.490362 0.598011C0.42566 0.664195 0.374698 0.742531 0.340414 0.828504C0.30613 0.914476 0.289203 1.00638 0.290608 1.09893V46.861C0.289767 46.9532 0.307112 47.0447 0.341648 47.1301C0.376185 47.2156 0.427237 47.2935 0.491883 47.3592C0.556529 47.4249 0.633501 47.4773 0.718395 47.5132C0.803288 47.5492 0.894438 47.568 0.98663 47.5687H45.9698C46.062 47.568 46.1532 47.5492 46.2381 47.5132C46.323 47.4773 46.3999 47.4249 46.4646 47.3592C46.5292 47.2935 46.5803 47.2156 46.6148 47.1301C46.6493 47.0447 46.6667 46.9532 46.6658 46.861V1.09893C46.6673 0.912824 46.5948 0.733763 46.4643 0.601071C46.3338 0.468379 46.1559 0.392903 45.9698 0.391219" fill="#9A9ACB"></path>
<path d="M136.524 9.55427L143.962 0.431599H148.366L140.643 9.55427L148.769 20.001H144.452L136.524 9.55427ZM136.465 20.001H132.719V0.431599H136.46L136.465 20.001Z" fill="#9A9ACB"></path>
<path d="M69.7823 13.1513C69.7823 12.0004 69.2063 11.4819 68.0544 11.4819H62.3513V16.8354H67.9407C69.1776 16.8354 69.7823 16.3168 69.7823 15.0789V13.1513ZM62.3513 3.59717V8.3163H67.7378C68.946 8.3163 69.3498 7.74142 69.3498 6.58953V5.09335C69.3498 4.05729 68.8312 3.59717 67.7378 3.59717H62.3513ZM73.6683 14.3032C73.6683 18.4761 71.1637 20.002 67.3988 20.002H58.6109V0.431599H67.25C70.7896 0.431599 73.2347 1.81302 73.2347 5.38132C73.29 6.34176 73.0307 7.29404 72.4961 8.09385C71.9615 8.89366 71.1807 9.49739 70.2721 9.81355C71.2734 10.0481 72.1612 10.6252 72.7822 11.445C73.4031 12.2648 73.718 13.2758 73.6726 14.3032" fill="#9A9ACB"></path>
<path d="M77.8189 0.431599H81.5583V16.8365H90.2528V20.001H77.82L77.8189 0.431599Z" fill="#9A9ACB"></path>
<path d="M105.11 13.2384V7.19417C105.11 4.60348 103.009 3.16574 100.419 3.16574C97.8293 3.16574 95.7285 4.60348 95.7285 7.19417V13.2384C95.7285 15.828 97.8293 17.2668 100.419 17.2668C103.009 17.2668 105.11 15.828 105.11 13.2384ZM100.419 20.4335C94.8932 20.4335 91.7001 16.8938 91.7001 10.2173C91.7001 3.54085 94.8932 -0.00195312 100.418 -0.00195312C105.942 -0.00195312 109.139 3.53766 109.139 10.2142C109.139 16.8907 105.942 20.4303 100.418 20.4303" fill="#9A9ACB"></path>
<path d="M112.605 10.2737C112.605 4.05835 115.339 -0.000890496 121.008 -0.000890496C125.038 -0.000890496 127.972 2.41659 128.234 6.26862H124.493C124.291 4.19649 122.968 3.16149 120.751 3.16149C120.209 3.12738 119.666 3.20752 119.157 3.39671C118.648 3.58591 118.185 3.87995 117.797 4.25976C117.409 4.63956 117.105 5.09667 116.905 5.60145C116.705 6.10623 116.613 6.64741 116.636 7.18992V13.1757C116.635 13.7249 116.745 14.2686 116.959 14.7743C117.173 15.28 117.487 15.7373 117.882 16.1188C118.277 16.5004 118.744 16.7983 119.257 16.9949C119.77 17.1914 120.317 17.2824 120.866 17.2626C123.197 17.2626 124.434 16.3126 124.809 14.0109H128.55C127.946 18.5005 124.896 20.4281 120.809 20.4281C115.168 20.4281 112.606 16.1691 112.606 10.2694" fill="#9A9ACB"></path>
<path d="M149.974 10.2737C149.974 4.05835 152.709 -0.000890496 158.377 -0.000890496C162.406 -0.000890496 165.341 2.41659 165.603 6.26862H161.861C161.659 4.19649 160.336 3.16149 158.12 3.16149C157.578 3.12737 157.035 3.2075 156.526 3.39671C156.017 3.58592 155.554 3.87997 155.166 4.2598C154.778 4.63962 154.474 5.09675 154.274 5.60153C154.074 6.1063 153.982 6.64746 154.005 7.18992V13.1757C154.004 13.725 154.114 14.2687 154.328 14.7745C154.542 15.2803 154.856 15.7377 155.252 16.1192C155.647 16.5008 156.115 16.7987 156.627 16.9952C157.14 17.1916 157.688 17.2826 158.237 17.2626C160.567 17.2626 161.805 16.3126 162.18 14.0109H165.92C165.317 18.5005 162.266 20.4281 158.179 20.4281C152.539 20.4281 149.977 16.1691 149.977 10.2694" fill="#9A9ACB"></path>
<path d="M181.902 11.6264H173.748V20.001H170.006V0.431599H173.748V8.45976H181.902V0.431599H185.644V20.001H181.902V11.6264Z" fill="#9A9ACB"></path>
<path d="M198.326 4.9499L195.967 12.6593H200.716L198.443 4.94671L198.326 4.9499ZM201.664 15.828H194.988L193.721 20.001H189.691L196.368 0.431599H200.339L206.988 20.001H202.958L201.664 15.828Z" fill="#9A9ACB"></path>
<path d="M210.171 0.431599H213.913V20.001H210.171V0.431599Z" fill="#9A9ACB"></path>
<path d="M230.356 15.3392V0.432662H234.069V20.002H228.457L222.613 5.06572H222.499V20.002H218.786V0.432662H224.398L230.242 15.3392H230.356Z" fill="#9A9ACB"></path>
<path d="M65.8165 32.5166H65.9324L68.2064 40.2292H63.4564L65.8165 32.5166ZM63.8592 27.9983L57.1827 47.5677H61.2122L62.4778 43.3937H69.1543L70.4496 47.5677H74.4759L67.8281 27.9983H63.8592Z" fill="#9A9ACB"></path>
<path d="M125.327 40.8051V34.7609C125.327 32.1713 123.226 30.7325 120.635 30.7325C118.045 30.7325 115.945 32.1713 115.945 34.7609V40.8051C115.945 43.3947 118.047 44.8335 120.635 44.8335C123.224 44.8335 125.327 43.3947 125.327 40.8051ZM120.635 48.0002C115.11 48.0002 111.917 44.4606 111.917 37.7841C111.917 31.1076 115.111 27.5679 120.635 27.5679C126.16 27.5679 129.356 31.1076 129.356 37.7841C129.356 44.4606 126.16 48.0002 120.635 48.0002Z" fill="#9A9ACB"></path>
<path d="M132.185 37.8414C132.185 31.6261 134.919 27.5669 140.588 27.5669C144.618 27.5669 147.552 29.9844 147.814 33.8364H144.073C143.871 31.7643 142.548 30.7293 140.331 30.7293C139.789 30.6951 139.246 30.7753 138.738 30.9645C138.229 31.1537 137.765 31.4477 137.377 31.8276C136.989 32.2074 136.686 32.6645 136.486 33.1693C136.286 33.6741 136.194 34.2152 136.217 34.7577V40.7509C136.216 41.3002 136.326 41.844 136.54 42.3497C136.754 42.8555 137.068 43.3129 137.463 43.6944C137.858 44.076 138.326 44.3739 138.839 44.5704C139.352 44.7669 139.899 44.8578 140.448 44.8378C142.778 44.8378 144.016 43.8878 144.39 41.5861H148.13C147.526 46.0757 144.477 48.0034 140.389 48.0034C134.748 48.0034 132.186 43.7443 132.186 37.8446" fill="#9A9ACB"></path>
<path d="M151.226 27.9983H154.968V47.5677H151.226V27.9983Z" fill="#9A9ACB"></path>
<path d="M166.311 32.5166H166.426L168.7 40.2292H163.951L166.311 32.5166ZM164.354 27.9983L157.678 47.5677H161.706L162.974 43.3937H169.649L170.945 47.5677H174.974L168.326 27.9983H164.354Z" fill="#9A9ACB"></path>
<path d="M173.698 27.9983V31.1639H179.193V47.5677H182.934V31.1639H188.429V27.9983H173.698Z" fill="#9A9ACB"></path>
<path d="M191.73 27.9983H195.471V47.5677H191.73V27.9983Z" fill="#9A9ACB"></path>
<path d="M211.822 40.8051V34.7609C211.822 32.1713 209.72 30.7325 207.13 30.7325C204.541 30.7325 202.44 32.1713 202.44 34.7609V40.8051C202.44 43.3947 204.541 44.8335 207.13 44.8335C209.72 44.8335 211.822 43.3947 211.822 40.8051ZM207.13 48.0002C201.605 48.0002 198.41 44.4606 198.41 37.7841C198.41 31.1076 201.606 27.5679 207.13 27.5679C212.655 27.5679 215.851 31.1076 215.851 37.7841C215.851 44.4606 212.655 48.0002 207.13 48.0002Z" fill="#9A9ACB"></path>
<path d="M230.356 27.9983V42.9049H230.241L224.397 27.9983H218.785V47.5677H222.499V32.6314H222.614L228.458 47.5677H234.07V27.9983H230.356Z" fill="#9A9ACB"></path>
<path d="M98.231 32.948C98.231 34.4453 99.1427 35.1349 100.994 35.6248L104.299 36.4877C107.604 37.3516 109.314 39.021 109.314 42.2439C109.314 45.8409 106.266 47.9991 101.821 47.9991C97.5179 47.9991 94.2982 46.2723 93.9571 41.7296H97.6614C97.9749 44.0323 99.4849 44.9239 101.765 44.9239C103.931 44.9239 105.612 43.9739 105.612 42.2758C105.612 40.8944 104.762 40.1186 103.019 39.6585L99.2288 38.6512C96.0664 37.817 94.5277 35.8596 94.5277 32.982C94.5277 29.8165 97.264 27.5711 101.594 27.5711C105.583 27.5711 108.433 29.384 108.832 33.4708H105.127C104.899 31.284 103.304 30.6496 101.537 30.6496C99.4849 30.6496 98.231 31.5422 98.231 32.9523" fill="#9A9ACB"></path>
<path d="M80.3257 32.948C80.3257 34.4453 81.2374 35.1349 83.0885 35.6248L86.3933 36.4877C89.6991 37.3516 91.4089 39.021 91.4089 42.2439C91.4089 45.8409 88.3602 47.9991 83.9152 47.9991C79.6126 47.9991 76.3929 46.2723 76.0518 41.7296H79.7519C80.0653 44.0323 81.5753 44.9239 83.8557 44.9239C86.0214 44.9239 87.7024 43.9739 87.7024 42.2758C87.7024 40.8944 86.8523 40.1186 85.1096 39.6585L81.3192 38.6512C78.1568 37.817 76.6182 35.8596 76.6182 32.982C76.6182 29.8165 79.3544 27.5711 83.6846 27.5711C87.6737 27.5711 90.5227 29.384 90.9222 33.4708H87.2221C86.9937 31.284 85.3987 30.6496 83.6315 30.6496C81.5796 30.6496 80.3257 31.5422 80.3257 32.9523" fill="#9A9ACB"></path>
</g>
<defs>
<clipPath id="svg1985018010_9463_clip0_14557_8912">
<rect width="234" height="48" fill="white" transform="translate(0.290527)"></rect>
</clipPath>
</defs>
</svg>