<svg width="319" height="48" viewBox="0 0 319 48" fill="none" id="svg100178241_3873">
<path d="M171.787 9.08578V19.681H171.882C173.635 17.3802 176.137 16.2292 179.389 16.2292C180.84 16.2292 182.213 16.466 183.505 16.9386C184.799 17.4111 185.948 18.1236 186.952 19.0772C187.953 20.0298 188.739 21.2202 189.305 22.6495C189.873 24.0778 190.155 25.7279 190.155 27.5988C190.155 29.7076 189.768 31.6671 188.991 33.4772C188.213 35.2884 187.003 36.738 185.361 37.8292C183.719 38.9194 181.682 39.4666 179.247 39.4666C175.733 39.4666 173.231 38.3476 171.739 36.1119H171.645V38.8874H164.97V9.08578H171.787ZM146.177 15.6071C159.147 15.6071 158.038 29.5271 158.038 29.5271H140.282C141.001 32.2972 143.387 34.118 146.676 34.118C150.638 34.118 152.773 31.7265 152.773 31.7265L156.542 35.5751C154.602 37.5004 151.996 39.2593 146.619 39.2593C138.304 39.2593 133.87 33.7607 133.87 27.9324C133.87 22.1041 137.197 15.6071 146.177 15.6071ZM307.681 15.5969C313.261 15.5969 316.808 17.7228 316.808 17.7228L314.516 22.6348C307.09 18.7863 303.726 21.4988 303.726 22.8545C303.726 24.2113 305.056 24.3212 310.229 25.2748C315.403 26.2284 317.806 28.3895 317.806 31.8721C317.806 35.3548 314.811 39.2044 307.496 39.2044C300.177 39.2044 296.853 36.8577 296.853 36.8577L299.07 31.982C304.798 35.6119 311.301 34.4375 311.301 32.2764C311.301 30.654 309.139 30.3102 306.811 30.0385L305.809 29.923C305.365 29.8705 304.924 29.8144 304.502 29.7463C301.546 29.2695 297.149 27.694 297.149 23.1479C297.149 18.6028 302.101 15.5969 307.681 15.5969ZM275.01 7.53314V25.5321L284.71 16.2201H292.637L283.023 25.4489L293.579 39.2046H285.708L278.49 29.8009L275.01 33.1406V39.2046H268.524V7.53314H275.01ZM251.765 15.4512C256.366 15.4512 260.393 17.7392 262.62 21.1686L257.137 24.3899C256.11 22.44 254.088 21.1142 251.765 21.1142C248.398 21.1142 245.667 23.896 245.667 27.3275C245.667 30.7579 248.398 33.5408 251.765 33.5408C253.981 33.5408 255.915 32.3323 256.984 30.5296L262.49 33.6763C260.24 36.9979 256.28 39.2048 251.765 39.2048C244.755 39.2048 239.072 33.8864 239.072 27.3275C239.072 20.7675 244.755 15.4512 251.765 15.4512ZM221.625 15.4502C228.634 15.4502 234.319 20.7686 234.319 27.3264C234.319 33.8864 228.634 39.2038 221.625 39.2038C214.612 39.2038 208.931 33.8864 208.931 27.3264C208.931 20.7686 214.612 15.4502 221.625 15.4502ZM106.371 16.1104V38.9851H99.3314V16.1104H106.371ZM93.0099 9.18199V14.9004H77.2673V22.4887H91.1797V28.1527H77.2673V38.9847H70.2262V9.18199H93.0099ZM121.396 18.9689C121.396 18.9689 123.89 15.0649 129.045 15.6707V22.0483C129.045 22.0483 123.446 20.619 121.396 26.3929V38.9838H114.689V16.1102H121.101L121.396 18.8046V18.9689ZM202.221 7.42242V38.8187H195.126V7.42242H202.221ZM177.338 21.2554C173.448 21.2554 171.502 23.6212 171.502 28.3551C171.502 30.1492 172.003 31.6543 173.005 32.8703C174.007 34.0852 175.518 34.6932 177.539 34.6932C178.887 34.6932 179.98 34.3423 180.82 33.6404C181.66 32.9375 182.255 32.0788 182.607 31.0623C182.961 30.0468 183.137 29.0324 183.137 28.0202C183.137 26.0746 182.676 24.4628 181.753 23.1796C180.83 21.8964 179.358 21.2554 177.338 21.2554ZM221.625 21.1142C218.255 21.1142 215.526 23.895 215.526 27.3264C215.526 30.759 218.255 33.5408 221.625 33.5408C224.992 33.5408 227.721 30.759 227.721 27.3264C227.721 23.895 224.992 21.1142 221.625 21.1142ZM146.287 20.5916C142.857 20.5916 140.95 22.7047 140.306 25.4577H151.803C151.746 24.742 150.611 20.5916 146.287 20.5916ZM102.852 5.3325C105.135 5.3325 106.989 7.0317 106.989 9.12663C106.989 11.2216 105.135 12.9208 102.852 12.9208C100.566 12.9208 98.7125 11.2216 98.7125 9.12663C98.7125 7.0317 100.566 5.3325 102.852 5.3325Z" fill="#9A9ACB"></path>
<path d="M46.6983 0C47.7587 0 48.6183 0.859613 48.6183 1.92V46.08C48.6183 47.1404 47.7587 48 46.6983 48H1.92C0.859613 48 0 47.1404 0 46.08V1.92C0 0.859613 0.859613 0 1.92 0H46.6983ZM24.309 13.3333L10.804 34.6667H37.8141L24.309 13.3333Z" fill="#9A9ACB"></path>
</svg>