<svg width="273" height="48" viewBox="0 0 273 48" fill="none" id="svg-127924381_5844">
<g clip-path="url(#svg-127924381_5844_clip0_14557_8893)">
<path d="M177.647 37.2459C172.778 37.2459 168.704 35.6075 165.428 32.3306C162.181 29.0544 160.558 24.9659 160.558 20.0653C160.558 15.1647 162.181 11.0916 165.428 7.84594C168.673 4.53844 172.746 2.88469 177.647 2.88469C182.608 2.88469 186.635 4.67625 189.729 8.25937L186.697 11.1994C184.338 8.35125 181.321 6.92719 177.647 6.92719C174.002 6.92719 170.955 8.15219 168.505 10.6022C166.086 13.0222 164.876 16.1766 164.876 20.0653C164.876 23.9541 166.086 27.1094 168.505 29.5312C170.955 31.9819 174.003 33.2069 177.647 33.2063C181.474 33.2063 184.797 31.5984 187.615 28.3828L190.693 31.3688C189.135 33.2343 187.171 34.7189 184.951 35.7094C182.655 36.7405 180.164 37.2646 177.647 37.2459ZM197.684 3.61969V36.5109H193.458V3.61969H197.684ZM200.739 25.2562C200.739 21.7962 201.826 18.9328 204 16.6659C206.205 14.3997 208.977 13.2666 212.315 13.2666C215.653 13.2666 218.409 14.3997 220.584 16.6659C222.789 18.9303 223.891 21.7937 223.891 25.2562C223.891 28.7475 222.789 31.6109 220.584 33.8466C218.41 36.1134 215.654 37.2466 212.315 37.2459C208.976 37.2453 206.204 36.1112 204 33.8438C201.826 31.58 200.739 28.7175 200.739 25.2562ZM204.965 25.2562C204.965 27.6762 205.669 29.6362 207.078 31.1362C208.487 32.6362 210.232 33.3862 212.315 33.3862C214.398 33.3862 216.144 32.6362 217.552 31.1362C218.96 29.6362 219.664 27.6762 219.665 25.2562C219.665 22.8675 218.96 20.9228 217.552 19.4222C216.114 17.8916 214.369 17.1259 212.315 17.1253C210.261 17.1247 208.515 17.8903 207.078 19.4222C205.67 20.9234 204.965 22.8681 204.965 25.2562ZM246.663 36.5109H242.62V33.3872H242.433C241.79 34.4897 240.802 35.4084 239.469 36.1434C238.201 36.8615 236.77 37.2412 235.313 37.2459C232.556 37.2459 230.435 36.4572 228.95 34.8797C227.464 33.3022 226.722 31.0591 226.722 28.1503V14.0016H230.949V27.8766C231.04 31.5516 232.893 33.3891 236.507 33.3891C238.191 33.3891 239.599 32.7075 240.733 31.3444C241.867 29.9813 242.434 28.3506 242.433 26.4525V14.0016H246.659L246.663 36.5109ZM260.393 37.2459C257.455 37.2459 254.929 36.0822 252.813 33.7547C250.73 31.3966 249.689 28.5637 249.689 25.2562C249.69 21.9487 250.731 19.1159 252.813 16.7578C254.926 14.4309 257.453 13.2672 260.393 13.2666C262.046 13.2666 263.555 13.6187 264.918 14.3231C266.281 15.0275 267.33 15.9616 268.064 17.1253H268.252L268.064 14.0016V3.61969H272.29V36.5109H268.248V33.3872H268.06C267.328 34.5516 266.28 35.485 264.916 36.1875C263.552 36.89 262.044 37.2428 260.393 37.2459ZM261.082 33.3872C263.164 33.3872 264.864 32.6372 266.181 31.1372C267.559 29.6372 268.248 27.6772 268.248 25.2572C268.248 22.8997 267.559 20.955 266.181 19.4231C264.834 17.8925 263.134 17.1269 261.082 17.1262C259.06 17.1262 257.361 17.8919 255.983 19.4231C254.604 20.9544 253.915 22.8991 253.915 25.2572C253.915 27.6459 254.604 29.5906 255.983 31.0913C257.361 32.6225 259.06 33.3878 261.082 33.3872Z" fill="#9A9ACB"></path>
<path d="M19.4223 22.0856V16.9988H36.4473C36.6367 18.0275 36.7289 19.0718 36.7229 20.1178C36.7229 23.9316 35.6785 28.6547 32.3166 32.0147C29.0485 35.4206 24.871 37.2375 19.3323 37.2375C9.07227 37.2375 0.447266 28.8816 0.447266 18.6188C0.447266 8.35594 9.07227 0 19.3332 0C25.0098 0 29.0495 2.22563 32.0907 5.13188L28.5038 8.71875C26.3223 6.67594 23.3738 5.08594 19.3332 5.08594C11.8426 5.08594 5.98602 11.1253 5.98602 18.6188C5.98602 26.1122 11.8426 32.1563 19.3332 32.1563C24.1913 32.1563 26.9607 30.2034 28.7307 28.4325C30.1735 26.9897 31.1241 24.9197 31.4926 22.0903L19.4223 22.0856Z" fill="#9A9ACB"></path>
<path d="M62.6635 25.2488C62.6635 32.1563 57.2598 37.2375 50.6335 37.2375C44.0073 37.2375 38.6035 32.1563 38.6035 25.2488C38.6035 18.3009 44.0063 13.26 50.6354 13.26C57.2645 13.26 62.6635 18.3009 62.6635 25.2488ZM57.3976 25.2488C57.3976 20.9363 54.2654 17.9831 50.6335 17.9831C47.0016 17.9831 43.8685 20.9344 43.8685 25.2488C43.8685 29.5172 47.0007 32.5144 50.6335 32.5144C54.2663 32.5144 57.3976 29.5172 57.3976 25.2488Z" fill="#9A9ACB"></path>
<path d="M88.9088 25.2488C88.9088 32.1563 83.5098 37.2375 76.8788 37.2375C70.2479 37.2375 64.8479 32.1563 64.8479 25.2488C64.8479 18.3009 70.2498 13.26 76.8788 13.26C83.5079 13.26 88.9088 18.3009 88.9088 25.2488ZM83.6429 25.2488C83.6429 20.9363 80.5107 17.9831 76.8788 17.9831C73.247 17.9831 70.1138 20.9344 70.1138 25.2488C70.1138 29.5172 73.246 32.5144 76.8788 32.5144C80.5116 32.5144 83.6429 29.5172 83.6429 25.2488Z" fill="#9A9ACB"></path>
<path d="M114.066 13.9866V35.5116C114.066 44.3672 108.845 48 102.67 48C96.8579 48 93.3629 44.0944 92.0466 40.9162L96.6348 39.0084C97.4513 40.9612 99.4473 43.2769 102.673 43.2769C106.623 43.2769 109.074 40.8244 109.074 36.2381V34.5131H108.893C107.712 35.9663 105.443 37.2375 102.582 37.2375C96.5888 37.2375 91.096 32.0147 91.096 25.2947C91.096 18.5278 96.5888 13.26 102.582 13.26C105.443 13.26 107.712 14.5312 108.893 15.9394H109.074V13.9866H114.066ZM109.434 25.2947C109.434 21.0712 106.622 17.9822 103.033 17.9822C99.4013 17.9822 96.3591 21.0703 96.3591 25.2947C96.3591 29.4722 99.4013 32.5134 103.033 32.5134C106.62 32.5144 109.434 29.4722 109.434 25.2947Z" fill="#9A9ACB"></path>
<path d="M122.985 1.38937V36.5109H117.719V1.38937H122.985Z" fill="#9A9ACB"></path>
<path d="M143.322 29.1994L147.408 31.9247C146.095 33.8766 142.914 37.2375 137.42 37.2375C130.61 37.2375 125.525 31.9697 125.525 25.2488C125.525 18.1238 130.656 13.26 136.829 13.26C143.049 13.26 146.091 18.21 147.09 20.8894L147.635 22.2516L131.604 28.8816C132.83 31.2881 134.737 32.5144 137.416 32.5144C140.095 32.5144 141.96 31.1981 143.322 29.1994ZM130.746 24.8869L141.46 20.4375C140.87 18.9375 139.1 17.895 137.011 17.895C134.333 17.8922 130.61 20.2509 130.746 24.8869Z" fill="#9A9ACB"></path>
</g>
<defs>
<clipPath id="svg-127924381_5844_clip0_14557_8893">
<rect width="271.843" height="48" fill="white" transform="translate(0.447266)"></rect>
</clipPath>
</defs>
</svg>