<svg width="245" height="48" viewBox="0 0 245 48" fill="none" id="svg-789726140_4760">
  <g clip-path="url(#svg-789726140_4760_clip0_14557_8998)">
    <path d="M20.1168 16.4598L15.1711 13.5972L0.333984 22.1841V39.3571L15.1711 47.944L30.0089 39.3571V12.643L38.2516 7.87294L46.4952 12.643V22.1841L38.2516 26.9542L33.3058 24.0926V31.7242L38.2516 34.587L53.0886 26V8.82713L38.2516 0.240234L23.4145 8.82713V35.5411L15.1711 40.3112L6.92856 35.5411V26L15.1711 21.2299L20.1168 24.0916V16.4598Z" fill="#9A9ACB"/>
    <path fill-rule="evenodd" clip-rule="evenodd" d="M125.458 37.2036H132.136V0.595776H125.458V37.2036ZM82.5233 11.1816C85.6886 11.1816 88.3129 12.4531 90.3882 14.9923C92.4676 17.5315 93.5035 20.6814 93.5035 24.4418C93.5035 28.2023 92.4638 31.3521 90.3882 33.8913C88.3091 36.4306 85.6886 37.702 82.5233 37.702C80.2818 37.702 78.334 37.0104 76.6875 35.6229C75.0721 34.2045 73.8854 32.2913 73.1242 29.8836V47.0975H66.4457V11.6763H73.1242V18.9963C73.8815 16.5885 75.0721 14.6908 76.6875 13.3072C78.3378 11.8888 80.2818 11.1816 82.5233 11.1816ZM80.0964 31.6149C81.9088 31.6149 83.4433 30.9387 84.6955 29.5859C85.9476 28.2023 86.5737 26.4863 86.5737 24.4418C86.5737 22.3973 85.9476 20.747 84.6955 19.3944C83.4433 18.0107 81.9088 17.3151 80.0964 17.3151C78.0827 17.3151 76.4208 17.9914 75.099 19.3441C73.7811 20.6968 73.1204 22.3935 73.1204 24.438C73.1204 26.4825 73.7811 28.1985 75.099 29.5821C76.4169 30.9349 78.0827 31.611 80.0964 31.611V31.6149ZM95.2774 24.4418C95.2774 28.2023 96.5799 31.3521 99.1847 33.8913C101.79 36.4306 105.04 37.702 108.932 37.702C112.824 37.702 116.074 36.4306 118.679 33.8913C121.284 31.3521 122.586 28.2023 122.586 24.4418C122.586 20.6814 121.284 17.5315 118.679 14.9923C116.074 12.4531 112.824 11.1816 108.932 11.1816C105.04 11.1816 101.79 12.4531 99.1847 14.9923C96.5799 17.5315 95.2774 20.6814 95.2774 24.4418ZM104.132 29.5859C102.845 28.2023 102.203 26.4863 102.203 24.4418C102.203 22.3973 102.845 20.747 104.132 19.3944C105.419 18.0107 107.019 17.3151 108.932 17.3151C110.845 17.3151 112.445 17.9914 113.732 19.3441C115.019 20.6968 115.66 22.3935 115.66 24.438C115.66 26.4825 115.019 28.1985 113.732 29.5821C112.445 30.9349 110.845 31.611 108.932 31.611C107.019 31.611 105.419 30.9349 104.132 29.5821V29.5859ZM193.835 33.8913C191.23 31.3521 189.927 28.2023 189.927 24.4418C189.927 20.6814 191.23 17.5315 193.835 14.9923C196.439 12.4531 199.69 11.1816 203.582 11.1816C207.474 11.1816 210.724 12.4531 213.329 14.9923C215.934 17.5315 217.236 20.6814 217.236 24.4418C217.236 28.2023 215.934 31.3521 213.329 33.8913C210.724 36.4306 207.474 37.702 203.582 37.702C199.69 37.702 196.443 36.4306 193.835 33.8913ZM196.849 24.4418C196.849 26.4863 197.491 28.2023 198.778 29.5859C200.065 30.9387 201.665 31.6149 203.578 31.6149C205.491 31.6149 207.091 30.9387 208.378 29.5859C209.665 28.2023 210.306 26.4863 210.306 24.4418C210.306 22.3973 209.665 20.6968 208.378 19.348C207.091 17.9953 205.491 17.3189 203.578 17.3189C201.665 17.3189 200.065 18.0107 198.778 19.3982C197.491 20.7509 196.849 22.4321 196.849 24.4457V24.4418ZM235.011 11.1816C237.847 11.1816 240.124 12.171 241.836 14.1498C243.583 16.1286 244.456 18.6523 244.456 21.7171V37.1998H237.778V22.9036C237.778 21.2533 237.252 19.9006 236.193 18.8455C235.138 17.7905 233.82 17.261 232.236 17.261C230.454 17.261 229.005 17.7905 227.884 18.8455C226.763 19.9006 226.203 21.2533 226.203 22.9036V37.1998H219.524V11.6763H226.203V18.2078C226.863 16.0319 227.969 14.316 229.519 13.0638C231.103 11.8115 232.931 11.1854 235.011 11.1854V11.1816ZM148.179 30.3977L155.005 11.6995H161.783L147.735 47.1206H140.956L144.519 38.1156L134.08 11.6995H141.304L148.179 30.3977ZM180.775 11.6763V18.0726C179.384 13.8985 175.948 11.6763 171.376 11.6763C164.474 11.6763 160.392 17.7054 160.392 24.0438C160.392 30.382 164.442 36.9058 171.376 36.9058C175.948 36.9058 179.384 33.6092 180.775 29.4352V34.3319C180.775 36.4113 180.099 38.1233 178.746 39.4762C177.394 40.8288 175.747 41.5052 173.799 41.5052C171.16 41.5052 169.2 40.1873 167.913 37.5476L161.927 40.7129C163.047 42.7921 164.647 44.454 166.727 45.71C168.806 46.9621 171.164 47.5885 173.799 47.5885C177.691 47.5885 180.941 46.3206 183.546 43.7775C186.151 41.2383 187.454 38.0886 187.454 34.3281V11.6763H180.775ZM178.847 28.8941C177.56 30.1811 175.944 30.8226 174 30.8226C172.056 30.8226 170.537 30.1811 169.25 28.8941C167.963 27.5762 167.322 25.9607 167.322 24.0476C167.322 22.1345 167.963 20.5345 169.25 19.2475C170.537 17.9605 172.118 17.3189 174 17.3189C175.882 17.3189 177.564 17.9605 178.847 19.2475C180.134 20.4997 180.775 22.0998 180.775 24.0476C180.775 25.9955 180.134 27.611 178.847 28.8941Z" fill="#9A9ACB"/>
  </g>
  <defs>
    <clipPath id="svg-789726140_4760_clip0_14557_8998">
      <rect width="244.148" height="48" fill="white" transform="translate(0.333984)"/>
    </clipPath>
  </defs>
</svg>
