<svg width="314" height="48" viewBox="0 0 314 48" fill="none" id="svg-388522681_5374">
<path d="M55.2551 37.0397L46.7804 46.1265C46.5972 46.3239 46.3751 46.4815 46.1282 46.5894C45.8813 46.6971 45.6151 46.7528 45.3456 46.7532H5.17167C4.98007 46.753 4.79266 46.697 4.63236 46.5921C4.47208 46.4871 4.3459 46.3375 4.26925 46.162C4.19262 45.9864 4.16885 45.7921 4.20086 45.6033C4.23287 45.4144 4.31927 45.2389 4.4495 45.0982L12.9147 36.0114C13.098 35.814 13.32 35.6564 13.5669 35.5487C13.8137 35.4408 14.0801 35.3851 14.3495 35.3849H54.5234C54.7167 35.3809 54.907 35.4342 55.0702 35.5381C55.2334 35.6418 55.3622 35.7917 55.4402 35.9686C55.5185 36.1454 55.5427 36.3416 55.5097 36.5321C55.4768 36.7227 55.3883 36.8992 55.2551 37.0397ZM46.7804 18.7366C46.5963 18.5401 46.3743 18.3832 46.1276 18.2755C45.8809 18.1677 45.6148 18.1115 45.3456 18.11H5.17167C4.98007 18.1102 4.79266 18.1661 4.63236 18.2711C4.47208 18.3761 4.3459 18.5256 4.26925 18.7012C4.19262 18.8768 4.16885 19.071 4.20086 19.2599C4.23287 19.4488 4.31927 19.6243 4.4495 19.7648L12.9147 28.8565C13.0987 29.0531 13.3208 29.21 13.5675 29.3177C13.8142 29.4254 14.0803 29.4817 14.3495 29.483H54.5234C54.7146 29.4822 54.9014 29.4254 55.061 29.32C55.2205 29.2146 55.3459 29.0652 55.4221 28.8897C55.498 28.7144 55.5214 28.5205 55.4893 28.332C55.4571 28.1436 55.3707 27.9685 55.2407 27.8283L46.7804 18.7366ZM5.17167 12.2083H45.3456C45.6151 12.2081 45.8813 12.1524 46.1282 12.0446C46.3751 11.9368 46.5972 11.7792 46.7804 11.5818L55.2551 2.49483C55.3543 2.38979 55.4292 2.2642 55.4743 2.12698C55.5193 1.98978 55.5337 1.84431 55.5162 1.70092C55.4985 1.55739 55.4494 1.41953 55.3722 1.29718C55.2952 1.17483 55.1919 1.07101 55.07 0.993099C54.907 0.889294 54.7167 0.836047 54.5234 0.840054H14.3495C14.0801 0.840338 13.8137 0.896116 13.5669 1.00391C13.32 1.1117 13.098 1.2692 12.9147 1.46658L4.4495 10.5535C4.31927 10.6941 4.23287 10.8696 4.20086 11.0585C4.16885 11.2474 4.19262 11.4416 4.26925 11.6172C4.3459 11.7928 4.47208 11.9422 4.63236 12.0472C4.79266 12.1522 4.98007 12.2082 5.17167 12.2083Z" fill="#9A9ACB"></path>
<path d="M104.234 20.2576H82.7408V13.1793H109.82V6.10103H82.6692C81.2719 6.09337 79.9037 6.50024 78.738 7.27016C77.572 8.04008 76.6604 9.13847 76.1188 10.4264C75.7593 11.2814 75.5718 12.1988 75.5668 13.1262V20.3001C75.5706 21.2287 75.7574 22.1471 76.1165 23.0034C76.4755 23.8597 77 24.6367 77.6596 25.2901C78.3191 25.9435 79.1011 26.4605 79.9607 26.8115C80.8203 27.1623 81.7407 27.3403 82.6692 27.3353H104.191V34.4136H76.0788V41.4918H104.234C105.162 41.497 106.081 41.3194 106.94 40.969C107.799 40.6186 108.581 40.1025 109.24 39.4501C109.9 38.7977 110.424 38.0218 110.784 37.1665C111.143 36.3115 111.331 35.3939 111.336 34.4662V27.2923C111.332 26.3638 111.145 25.4452 110.787 24.5891C110.427 23.7328 109.903 22.9558 109.243 22.3024C108.584 21.649 107.802 21.132 106.942 20.781C106.083 20.4301 105.162 20.2525 104.234 20.2576ZM145.871 6.10103H124.297C123.368 6.09373 122.446 6.26976 121.585 6.61908C120.724 6.96837 119.94 7.4841 119.279 8.13669C118.617 8.78928 118.091 9.56594 117.73 10.4222C117.369 11.2785 117.181 12.1975 117.176 13.1267V34.4667C117.18 35.396 117.369 36.3153 117.729 37.1718C118.09 38.0283 118.616 38.8052 119.278 39.4578C119.94 40.1106 120.723 40.6263 121.585 40.9752C122.446 41.3244 123.368 41.5001 124.297 41.4924H145.871C147.268 41.5001 148.636 41.0932 149.802 40.3235C150.968 39.5536 151.88 38.4552 152.422 37.1674C152.781 36.3121 152.969 35.3945 152.974 34.4667V13.1267C152.969 12.199 152.781 11.2814 152.421 10.4263C152.062 9.57122 151.537 8.7954 150.877 8.14322C150.218 7.49078 149.436 6.97461 148.577 6.62421C147.718 6.27381 146.799 6.09604 145.871 6.10103ZM145.819 34.4141H124.349V13.1793H145.809L145.819 34.4141ZM221.437 6.10103H200.393C198.996 6.09337 197.628 6.50024 196.462 7.27016C195.296 8.04008 194.384 9.13847 193.843 10.4264C193.483 11.2815 193.296 12.1991 193.291 13.1267V41.4924H200.465V29.8657H221.412V41.4924H228.587V13.1267C228.579 11.7234 228.155 10.3541 227.366 9.19342C226.577 8.03276 225.461 7.13334 224.158 6.60991C223.292 6.26229 222.368 6.08964 221.437 6.10103ZM221.385 22.7876H200.436V13.1793H221.385V22.7876ZM305.203 6.10103H284.16C282.764 6.09337 281.395 6.50024 280.229 7.27016C279.064 8.04008 278.152 9.13847 277.609 10.4264C277.251 11.2815 277.063 12.1991 277.059 13.1267V41.4924H284.231V29.8657H305.132V41.4924H312.305V13.1267C312.301 12.199 312.113 11.2814 311.754 10.4263C311.395 9.57122 310.869 8.7954 310.21 8.14322C308.878 6.82568 307.077 6.0911 305.203 6.10103ZM305.132 22.7876H284.183V13.1793H305.132V22.7876ZM263.523 34.4141H260.653L250.396 9.06626C250.043 8.1917 249.44 7.44213 248.657 6.91379C247.877 6.38544 246.956 6.10243 246.015 6.10103H239.648C238.717 6.0959 237.805 6.36743 237.027 6.88124C236.25 7.39505 235.643 8.12803 235.282 8.98735C235.042 9.55764 234.917 10.1695 234.915 10.788V41.4924H242.087V13.1793H244.957L255.212 38.527C255.569 39.4002 256.179 40.1467 256.961 40.6716C257.746 41.1965 258.668 41.4755 259.612 41.4732H265.977C266.597 41.4765 267.208 41.3578 267.782 41.124C268.354 40.8901 268.876 40.5455 269.316 40.1102C270.203 39.231 270.706 38.0356 270.712 36.7863V6.10103H263.523V34.4141ZM166.484 6.10103H159.31V34.4667C159.317 35.867 159.741 37.2333 160.526 38.3924C161.312 39.5515 162.425 40.4508 163.723 40.9759C164.585 41.325 165.507 41.5005 166.436 41.4924H187.958V34.4141H166.484V6.10103Z" fill="#9A9ACB"></path>
</svg>