<svg width="7" height="7" viewBox="0 0 7 7" fill="none" xmlns="http://www.w3.org/2000/svg">
<g clip-path="url(#clip0_163_383)">
<path d="M4.95195 2.84943L4.74695 3.05543L1.44995 6.35243C1.22795 6.57543 0.964949 6.62343 0.702949 6.50243C0.449949 6.38343 0.310949 6.16643 0.347949 5.90243C0.380895 5.71288 0.470092 5.53762 0.603949 5.39943C1.66695 4.31743 2.74395 3.24943 3.81595 2.17643L4.01995 1.97343C3.95441 1.96225 3.88831 1.95457 3.82195 1.95043C3.39195 1.94843 2.96195 1.95243 2.53195 1.94743C2.19195 1.94343 1.95595 1.70943 1.95195 1.38343C1.94695 1.02843 2.15995 0.790432 2.51595 0.788432C3.50595 0.779432 4.49395 0.779432 5.48195 0.785432C5.88195 0.787432 6.10695 1.00343 6.11395 1.39843C6.13195 2.37843 6.14295 3.36043 6.14595 4.34143C6.14795 4.70143 5.91395 4.91143 5.55595 4.90943C5.21895 4.90643 4.99795 4.68943 4.98695 4.33943C4.97695 3.92543 4.97595 3.51043 4.96895 3.09543C4.96895 3.03043 4.95895 2.96543 4.95195 2.84943Z" fill="#038E00"/>
</g>
<defs>
<clipPath id="clip0_163_383">
<rect width="7" height="7" fill="white"/>
</clipPath>
</defs>
</svg>
