<svg width="12" height="10" viewBox="0 0 12 10" fill="none" xmlns="http://www.w3.org/2000/svg">
<path fill-rule="evenodd" clip-rule="evenodd" d="M7.02598 0.232086C7.12688 0.147922 7.24337 0.0844679 7.36881 0.0453489C7.49424 0.00622996 7.62615 -0.00778619 7.757 0.0041011C7.88786 0.0159884 8.01509 0.0535462 8.13142 0.114628C8.24775 0.17571 8.3509 0.259119 8.43498 0.360086L11.768 4.36009C11.9302 4.56459 12.0061 4.82444 11.9793 5.08413C11.9526 5.34382 11.8254 5.58274 11.6248 5.74987C11.4242 5.917 11.1663 5.99907 10.906 5.97856C10.6458 5.95804 10.4039 5.83657 10.232 5.64009L6.89798 1.64009C6.72831 1.43637 6.64649 1.17362 6.67049 0.909587C6.69449 0.645559 6.82236 0.401868 7.02598 0.232086Z" fill="#7868C5"/>
<path fill-rule="evenodd" clip-rule="evenodd" d="M7.02598 9.76714C6.82236 9.59736 6.69449 9.35367 6.67049 9.08964C6.64649 8.82561 6.72831 8.56286 6.89798 8.35914L10.232 4.35914C10.4039 4.16266 10.6458 4.04119 10.906 4.02067C11.1663 4.00016 11.4242 4.08223 11.6248 4.24936C11.8254 4.41649 11.9526 4.65541 11.9793 4.9151C12.0061 5.17479 11.9302 5.43464 11.768 5.63914L8.43498 9.63914C8.3509 9.74011 8.24775 9.82352 8.13142 9.8846C8.01509 9.94568 7.88786 9.98324 7.757 9.99513C7.62615 10.007 7.49424 9.993 7.36881 9.95388C7.24337 9.91476 7.12688 9.85131 7.02598 9.76714Z" fill="#7868C5"/>
<path fill-rule="evenodd" clip-rule="evenodd" d="M10 5C10 5.26522 9.89464 5.51957 9.70711 5.70711C9.51957 5.89464 9.26522 6 9 6H1C0.734784 6 0.48043 5.89464 0.292893 5.70711C0.105357 5.51957 0 5.26522 0 5C0 4.73478 0.105357 4.48043 0.292893 4.29289C0.48043 4.10536 0.734784 4 1 4H9C9.26522 4 9.51957 4.10536 9.70711 4.29289C9.89464 4.48043 10 4.73478 10 5Z" fill="#7868C5"/>
</svg>
