<svg xmlns="http://www.w3.org/2000/svg" width="18" height="19" fill="none"><path stroke="#AEAEB8" stroke-linecap="round" stroke-miterlimit="10" stroke-width="1.5" d="M9 5.33v2.498M9.016 2a4.993 4.993 0 0 0-4.995 4.995V8.57c0 .51-.21 1.275-.472 1.71l-.953 1.59c-.585.982-.18 2.078.9 2.438a17.505 17.505 0 0 0 11.048 0 1.665 1.665 0 0 0 .9-2.438l-.953-1.59c-.262-.435-.472-1.207-.472-1.71V6.995C14.01 4.25 11.76 2 9.016 2Z"/><path stroke="#AEAEB8" stroke-miterlimit="10" stroke-width="1.5" d="M11.497 14.615a2.506 2.506 0 0 1-2.498 2.498 2.502 2.502 0 0 1-1.762-.735 2.502 2.502 0 0 1-.735-1.763"/></svg>