<svg xmlns="http://www.w3.org/2000/svg" width="18" height="19" fill="none"><path stroke="#AEAEB8" stroke-linecap="round" stroke-linejoin="round" d="M7.2 15.5h3.6c3 0 4.2-1.2 4.2-4.2V7.7c0-3-1.2-4.2-4.2-4.2H7.2C4.2 3.5 3 4.7 3 7.7v3.6c0 3 1.2 4.2 4.2 4.2Z"/><path stroke="#AEAEB8" stroke-linecap="round" stroke-linejoin="round" d="M7.875 13.25h2.25c1.875 0 2.625-.75 2.625-2.625v-2.25c0-1.875-.75-2.625-2.625-2.625h-2.25C6 5.75 5.25 6.5 5.25 8.375v2.25c0 1.875.75 2.625 2.625 2.625ZM6.008 3.5V2M9 3.5V2m3 1.5V2m3 4.5h1.5m-1.5 3h1.5m-1.5 3h1.5m-4.5 3V17m-2.992-1.5V17m-3-1.5V17M1.5 6.5H3m-1.5 3H3m-1.5 3H3"/></svg>