<svg width="33" height="33" viewBox="0 0 33 33" fill="none" xmlns="http://www.w3.org/2000/svg">
<circle cx="16.6205" cy="16.791" r="15.8848" fill="#7300EB"/>
<path d="M16.6205 26.4918C16.4538 26.4918 16.2872 26.4711 16.1205 26.4298C15.9538 26.3885 15.7955 26.3258 15.6455 26.2418L8.64548 22.3668C8.32882 22.1835 8.07882 21.9378 7.89548 21.6298C7.71215 21.3218 7.62048 20.9838 7.62048 20.6158V12.9658C7.62048 12.5991 7.71215 12.2618 7.89548 11.9538C8.07882 11.6458 8.32882 11.3998 8.64548 11.2158L15.6455 7.3408C15.7955 7.25746 15.9538 7.19513 16.1205 7.1538C16.2872 7.11246 16.4538 7.0918 16.6205 7.0918C16.7872 7.0918 16.9538 7.1128 17.1205 7.1548C17.2872 7.1968 17.4455 7.25913 17.5955 7.3418L24.5955 11.2168C24.9122 11.4001 25.1622 11.6461 25.3455 11.9548C25.5288 12.2635 25.6205 12.6008 25.6205 12.9668V20.6168C25.6205 20.9835 25.5288 21.3211 25.3455 21.6298C25.1622 21.9385 24.9122 22.1841 24.5955 22.3668L17.5955 26.2418C17.4455 26.3251 17.2872 26.3878 17.1205 26.4298C16.9538 26.4718 16.7872 26.4925 16.6205 26.4918ZM13.7205 14.0418C14.0872 13.6585 14.5165 13.3541 15.0085 13.1288C15.5005 12.9035 16.0378 12.7911 16.6205 12.7918C17.2032 12.7925 17.7408 12.9051 18.2335 13.1298C18.7261 13.3545 19.1551 13.6585 19.5205 14.0418L22.5205 12.3668L16.6205 9.0918L10.7205 12.3668L13.7205 14.0418ZM15.6205 23.9418V20.6668C14.7538 20.4335 14.0372 19.9628 13.4705 19.2548C12.9038 18.5468 12.6205 17.7258 12.6205 16.7918C12.6205 16.6085 12.6288 16.4335 12.6455 16.2668C12.6621 16.1001 12.6955 15.9418 12.7455 15.7918L9.62048 14.0418V20.6168L15.6205 23.9418ZM16.6205 18.7918C17.1705 18.7918 17.6415 18.5958 18.0335 18.2038C18.4255 17.8118 18.6212 17.3411 18.6205 16.7918C18.6198 16.2425 18.4242 15.7718 18.0335 15.3798C17.6428 14.9878 17.1718 14.7918 16.6205 14.7918C16.0692 14.7918 15.5985 14.9878 15.2085 15.3798C14.8185 15.7718 14.6225 16.2425 14.6205 16.7918C14.6185 17.3411 14.8145 17.8121 15.2085 18.2048C15.6025 18.5975 16.0732 18.7931 16.6205 18.7918ZM17.6205 23.9418L23.6205 20.6168V14.0418L20.4955 15.7918C20.5455 15.9585 20.5788 16.1211 20.5955 16.2798C20.6122 16.4385 20.6205 16.6091 20.6205 16.7918C20.6205 17.7251 20.3371 18.5461 19.7705 19.2548C19.2038 19.9635 18.4872 20.4341 17.6205 20.6668V23.9418Z" fill="#E9D6FF"/>
</svg>
