<svg xmlns="http://www.w3.org/2000/svg" width="520" height="157" fill="none"><g filter="url(#a)"><path fill="url(#b)" fill-opacity=".1" d="M509.785 81.924c2.896-.323 7.843 1.209 9.955 2.015v72.802H.259V73.328c2.489 0 2.036 0 6.109-2.686 4.072-2.686 5.204-3.895 11.991-1.88 6.788 2.014 7.693 0 12.218-3.627 4.525-3.626 6.787-2.552 12.218-1.343 5.43 1.209 6.335-3.76 12.11-7.118 5.774-3.358 8.253 4.029 10.515 9.267 2.249 5.206 7.404 10.015 12.132 14.425l.086.08c4.751 4.433 11.765-1.746 14.028-4.432 2.262-2.686 2.941-3.089 9.729-2.686 6.787.403 8.824-1.343 11.086-4.567 2.263-3.223 1.81-2.417 7.014-4.969 5.204-2.552 7.693-.806 10.634-1.209 2.941-.403 6.335-5.103 8.598-7.79 2.262-2.686 2.036-4.566 8.824-3.358 6.69 1.192 8.105-.226 11.61-3.74l.155-.154c3.62-3.627 6.109-4.701 13.349-6.582 7.24-1.88 4.978-1.074 10.408 0 5.43 1.075 8.145-.403 11.539-2.954 3.393-2.552 2.262-7.656 11.539-5.641 9.276 2.014 11.312-2.82 13.349-7.925 2.036-5.104 7.692-5.104 13.349-4.03 5.656 1.075 8.145-6.312 8.597-11.415.453-5.104.905-7.119 7.467-7.119 6.561 0 6.109 8.059 8.597 18.535 2.489 10.476 1.132 10.745 8.598 11.148 7.467.403 7.467.403 11.539 8.327 4.073 7.924 5.657 7.656 12.897 7.656s9.955 6.312 12.444 12.893c2.459 6.503 7.79 4.745 15.775 2.11l.289-.095c8.145-2.686 9.955-2.015 15.159-11.55 5.204-9.537 11.765-5.105 14.706.805 2.942 5.91 4.526 6.716 9.503 8.73 4.978 2.015 9.955 2.552 11.765 6.178 1.81 3.627 7.919 6.582 13.123 4.433 5.204-2.15 9.05-1.612 11.992 2.149 2.941 3.76 5.882 3.626 9.276 4.029s10.634 0 14.254 3.76c3.62 3.761 8.598 2.956 11.313 2.15s8.371-1.21 10.181 0c1.81 1.208 7.241 5.506 13.24-1.21 6-6.715 12.78-2.282 14.137-.94 1.358 1.344 4.525 4.567 9.503 2.956 4.978-1.612 9.05-2.015 12.896 0 3.847 2.014 7.467 2.82 10.182 1.611 2.715-1.209 5.883-3.223 9.503-3.626Z"/></g><path stroke="#5900FD" stroke-linecap="round" stroke-width="2.815" d="M517.734 83.276c-2.095-.8-7.004-2.319-9.878-1.999-3.592.4-6.735 2.4-9.428 3.599-2.694 1.199-6.286.4-10.103-1.6-3.816-1.999-7.857-1.599-12.796 0-4.939 1.6-8.082-1.599-9.429-2.931-1.347-1.333-8.073-5.73-14.026.932-5.954 6.664-11.341 2.4-13.137 1.2-1.796-1.2-7.409-.8-10.103 0s-7.632 1.6-11.224-2.132c-3.592-3.732-10.776-3.332-14.143-3.732-3.368-.4-6.286-.266-9.205-3.998-2.918-3.731-6.734-4.264-11.898-2.132-5.163 2.132-11.224-.8-13.02-4.398-1.796-3.598-6.735-4.131-11.674-6.13-4.939-1.999-6.51-2.798-9.429-8.662-2.918-5.864-9.429-10.262-14.592-.8s-6.959 8.796-15.041 11.461c-8.082 2.665-13.47 4.531-15.939-1.999-2.47-6.53-5.163-12.793-12.347-12.793-7.184 0-8.756.266-12.796-7.596-4.041-7.863-4.041-7.863-11.45-8.263-7.408-.4-6.061-.666-8.53-11.06-2.47-10.395-2.021-18.391-8.531-18.391-6.51 0-6.959 1.999-7.408 7.063-.449 5.064-2.919 12.393-8.531 11.327-5.613-1.066-11.225-1.066-13.245 3.998-2.021 5.064-4.041 9.862-13.246 7.863-9.204-2-8.081 3.065-11.449 5.597-3.367 2.532-6.061 3.998-11.449 2.932-5.388-1.066-3.143-1.866-10.327 0-7.183 1.865-9.653 2.932-13.245 6.53-3.592 3.598-4.939 5.064-11.673 3.864-6.735-1.199-6.511.667-8.756 3.332s-5.612 7.33-8.53 7.73c-2.919.4-5.388-1.333-10.552 1.199-5.163 2.532-4.714 1.732-6.959 4.93-2.245 3.199-4.265 4.931-11 4.532-6.735-.4-7.408 0-9.653 2.665s-9.205 8.795-13.919 4.397c-4.714-4.397-9.878-9.195-12.123-14.392-2.245-5.197-4.704-12.527-10.434-9.195-5.73 3.331-6.627 8.262-12.015 7.063-5.388-1.2-7.633-2.266-12.123 1.332-4.49 3.599-5.388 5.597-12.122 3.599-6.735-2-7.858-.8-11.899 1.865-4.04 2.666-3.591 2.666-6.06 2.666"/><defs><radialGradient id="b" cx="0" cy="0" r="1" gradientTransform="matrix(0 283.5 -951.922 0 260 -65)" gradientUnits="userSpaceOnUse"><stop offset=".093" stop-color="#fff"/><stop offset=".914" stop-color="#04031E" stop-opacity="0"/></radialGradient><filter id="a" width="804.681" height="440.065" x="-142.341" y="-140.725" color-interpolation-filters="sRGB" filterUnits="userSpaceOnUse"><feFlood flood-opacity="0" result="BackgroundImageFix"/><feGaussianBlur in="BackgroundImageFix" stdDeviation="71.3"/><feComposite in2="SourceAlpha" operator="in" result="effect1_backgroundBlur_769_8078"/><feBlend in="SourceGraphic" in2="effect1_backgroundBlur_769_8078" result="shape"/></filter></defs></svg>