<svg width="24" height="24" viewBox="0 0 24 24" fill="none" xmlns="http://www.w3.org/2000/svg">
<path d="M21.743 12.3302L12.743 2.33017C12.364 1.90817 11.636 1.90817 11.257 2.33017L2.25699 12.3302C2.12767 12.4739 2.04279 12.652 2.01262 12.843C1.98245 13.034 2.00828 13.2296 2.08699 13.4062C2.24699 13.7672 2.60499 13.9992 2.99999 13.9992H4.99999V20.9992C4.99999 21.2644 5.10535 21.5187 5.29289 21.7063C5.48042 21.8938 5.73478 21.9992 5.99999 21.9992H8.99999C9.26521 21.9992 9.51956 21.8938 9.7071 21.7063C9.89464 21.5187 9.99999 21.2644 9.99999 20.9992V16.9992H14V20.9992C14 21.2644 14.1054 21.5187 14.2929 21.7063C14.4804 21.8938 14.7348 21.9992 15 21.9992H18C18.2652 21.9992 18.5196 21.8938 18.7071 21.7063C18.8946 21.5187 19 21.2644 19 20.9992V13.9992H21C21.1937 14 21.3834 13.9445 21.546 13.8393C21.7087 13.7342 21.8372 13.584 21.916 13.4071C21.9947 13.2301 22.0203 13.0341 21.9896 12.8429C21.9589 12.6517 21.8732 12.4735 21.743 12.3302Z" fill="#beb5ec"/>
</svg>
