<svg width="100" height="30" viewBox="0 0 100 30" fill="none" xmlns="http://www.w3.org/2000/svg">
<path d="M34.8491 22.7939H32.0562V7.38965H34.8491V22.7939ZM50.3501 18.873C50.3501 19.3529 50.2892 19.7861 50.1675 20.1729C50.0457 20.5524 49.8846 20.889 49.6841 21.1826C49.4836 21.4691 49.2508 21.7161 48.9858 21.9238C48.7209 22.1243 48.4416 22.2891 48.1479 22.418C47.8615 22.5469 47.5679 22.6436 47.2671 22.708C46.9735 22.7653 46.6942 22.7939 46.4292 22.7939H41.3911C41.0044 22.7939 40.5819 22.7259 40.1235 22.5898C39.6652 22.4538 39.2391 22.2318 38.8452 21.9238C38.4585 21.6087 38.1326 21.2041 37.8677 20.71C37.6099 20.2087 37.481 19.5964 37.481 18.873V15.0918C37.481 14.3757 37.6099 13.7705 37.8677 13.2764C38.1326 12.7751 38.4585 12.3704 38.8452 12.0625C39.2391 11.7474 39.6652 11.5218 40.1235 11.3857C40.5819 11.2497 41.0044 11.1816 41.3911 11.1816H46.4292C47.1453 11.1816 47.7541 11.3105 48.2554 11.5684C48.7567 11.8262 49.1613 12.152 49.4692 12.5459C49.7772 12.9326 49.9992 13.3551 50.1353 13.8135C50.2785 14.2718 50.3501 14.6979 50.3501 15.0918V18.873ZM47.5571 15.1133C47.5571 14.7266 47.4604 14.4401 47.2671 14.2539C47.0737 14.0677 46.7944 13.9746 46.4292 13.9746H41.4126C41.0402 13.9746 40.7573 14.0713 40.564 14.2646C40.3706 14.4508 40.2739 14.7266 40.2739 15.0918V18.873C40.2739 19.2383 40.3706 19.5176 40.564 19.7109C40.7573 19.9043 41.0402 20.001 41.4126 20.001H46.4292C46.8088 20.001 47.0916 19.9043 47.2778 19.7109C47.464 19.5176 47.5571 19.2383 47.5571 18.873V15.1133ZM68.4614 7.38965L61.1675 22.2461C61.0529 22.4753 60.881 22.6579 60.6519 22.7939C60.4299 22.9372 60.1828 23.0088 59.9106 23.0088C59.6457 23.0088 59.3986 22.9372 59.1694 22.7939C58.9474 22.6579 58.7756 22.4753 58.6538 22.2461L51.3706 7.38965H54.4966L59.9106 18.4863L65.3462 7.38965H68.4614ZM81.4487 15.0273C81.4487 15.4141 81.3807 15.833 81.2446 16.2842C81.1086 16.7282 80.8866 17.1436 80.5786 17.5303C80.2778 17.9098 79.8804 18.2285 79.3862 18.4863C78.8993 18.7441 78.3049 18.873 77.603 18.873H72.5649V16.2197H77.603C77.9826 16.2197 78.2762 16.1051 78.4839 15.876C78.6916 15.6396 78.7954 15.3496 78.7954 15.0059C78.7954 14.6406 78.6772 14.3542 78.4409 14.1465C78.2118 13.9388 77.9325 13.835 77.603 13.835H72.5649C72.1854 13.835 71.8918 13.9531 71.6841 14.1895C71.4764 14.4186 71.3726 14.7051 71.3726 15.0488V18.9482C71.3726 19.3206 71.4871 19.6107 71.7163 19.8184C71.9526 20.026 72.2427 20.1299 72.5864 20.1299H77.603V22.7939H72.5649C72.1782 22.7939 71.7593 22.7259 71.3081 22.5898C70.8641 22.4538 70.4487 22.2354 70.062 21.9346C69.6825 21.6266 69.3638 21.2292 69.106 20.7422C68.8481 20.248 68.7192 19.6501 68.7192 18.9482V15.0273C68.7192 14.6406 68.7873 14.2253 68.9233 13.7812C69.0594 13.3301 69.2778 12.9147 69.5786 12.5352C69.8866 12.1484 70.284 11.8262 70.771 11.5684C71.2651 11.3105 71.8631 11.1816 72.5649 11.1816H77.603C77.9897 11.1816 78.4051 11.2497 78.8491 11.3857C79.3003 11.5218 79.7157 11.7438 80.0952 12.0518C80.4819 12.3525 80.8042 12.75 81.062 13.2441C81.3198 13.7311 81.4487 14.3255 81.4487 15.0273ZM90.6763 12.8896L95.3813 7.38965H99.1948L92.5669 15.1133L99.1519 22.7939H95.3599L90.6763 17.3369L86.0142 22.7939H82.2114L88.7856 15.1133L82.1899 7.38965H85.9712L90.6763 12.8896Z" fill="white"/>
<path d="M13.6694 0.269531L26.58 7.53175V22.0562L13.6694 29.3184L0.758789 22.0562V7.53175L13.6694 0.269531Z" fill="url(#paint0_linear_98_324)"/>
<path d="M13.6692 18.6673C15.8083 18.6673 17.5424 16.9332 17.5424 14.7941C17.5424 12.655 15.8083 10.9209 13.6692 10.9209C11.5301 10.9209 9.79602 12.655 9.79602 14.7941C9.79602 16.9332 11.5301 18.6673 13.6692 18.6673Z" stroke="white"/>
<path d="M13.6694 10.9211V5.11133" stroke="white" stroke-linecap="round"/>
<path d="M13.6692 5.75591C14.0257 5.75591 14.3147 5.46689 14.3147 5.11037C14.3147 4.75386 14.0257 4.46484 13.6692 4.46484C13.3127 4.46484 13.0237 4.75386 13.0237 5.11037C13.0237 5.46689 13.3127 5.75591 13.6692 5.75591Z" fill="white" stroke="white" stroke-linecap="round"/>
<path d="M13.6694 18.667V24.4768" stroke="white" stroke-linecap="round"/>
<path d="M13.6692 25.1221C14.0257 25.1221 14.3147 24.8331 14.3147 24.4766C14.3147 24.1201 14.0257 23.8311 13.6692 23.8311C13.3127 23.8311 13.0237 24.1201 13.0237 24.4766C13.0237 24.8331 13.3127 25.1221 13.6692 25.1221Z" fill="white" stroke="white" stroke-linecap="round"/>
<path d="M9.7961 14.793H3.98633" stroke="white" stroke-linecap="round"/>
<path d="M3.98635 15.4395C4.34287 15.4395 4.63188 15.1505 4.63188 14.794C4.63188 14.4375 4.34287 14.1484 3.98635 14.1484C3.62983 14.1484 3.34082 14.4375 3.34082 14.794C3.34082 15.1505 3.62983 15.4395 3.98635 15.4395Z" fill="white" stroke="white" stroke-linecap="round"/>
<path d="M11.4099 12.2106L7.21399 8.01465" stroke="white" stroke-linecap="round"/>
<path d="M7.21389 8.6602C7.57041 8.6602 7.85942 8.37119 7.85942 8.01467C7.85942 7.65815 7.57041 7.36914 7.21389 7.36914C6.85737 7.36914 6.56836 7.65815 6.56836 8.01467C6.56836 8.37119 6.85737 8.6602 7.21389 8.6602Z" fill="white" stroke="white" stroke-linecap="round"/>
<path d="M11.4099 17.376L7.21399 21.5719" stroke="white" stroke-linecap="round"/>
<path d="M7.21389 22.2178C7.57041 22.2178 7.85942 21.9288 7.85942 21.5723C7.85942 21.2158 7.57041 20.9268 7.21389 20.9268C6.85737 20.9268 6.56836 21.2158 6.56836 21.5723C6.56836 21.9288 6.85737 22.2178 7.21389 22.2178Z" fill="white" stroke="white" stroke-linecap="round"/>
<path d="M17.5425 14.793H23.3523" stroke="white" stroke-linecap="round"/>
<path d="M23.3522 15.4395C23.7087 15.4395 23.9977 15.1505 23.9977 14.794C23.9977 14.4375 23.7087 14.1484 23.3522 14.1484C22.9957 14.1484 22.7067 14.4375 22.7067 14.794C22.7067 15.1505 22.9957 15.4395 23.3522 15.4395Z" fill="white" stroke="white" stroke-linecap="round"/>
<path d="M15.9287 12.2106L20.1247 8.01465" stroke="white" stroke-linecap="round"/>
<path d="M20.1245 8.6602C20.4811 8.6602 20.7701 8.37119 20.7701 8.01467C20.7701 7.65815 20.4811 7.36914 20.1245 7.36914C19.768 7.36914 19.479 7.65815 19.479 8.01467C19.479 8.37119 19.768 8.6602 20.1245 8.6602Z" fill="white" stroke="white" stroke-linecap="round"/>
<path d="M15.9287 17.376L20.1247 21.5719" stroke="white" stroke-linecap="round"/>
<path d="M20.1245 22.2178C20.4811 22.2178 20.7701 21.9288 20.7701 21.5723C20.7701 21.2158 20.4811 20.9268 20.1245 20.9268C19.768 20.9268 19.479 21.2158 19.479 21.5723C19.479 21.9288 19.768 22.2178 20.1245 22.2178Z" fill="white" stroke="white" stroke-linecap="round"/>
<defs>
<linearGradient id="paint0_linear_98_324" x1="-3.07793" y1="10.7214" x2="37.1599" y2="12.2756" gradientUnits="userSpaceOnUse">
<stop stop-color="#72A7FF"/>
<stop offset="0.815976" stop-color="#A365EE"/>
</linearGradient>
</defs>
</svg>
