<svg width="258" height="82" viewBox="0 0 258 82" fill="none" xmlns="http://www.w3.org/2000/svg">
<rect x="1.44348" y="1.28906" width="255.788" height="79.2461" rx="9.5" fill="url(#paint0_linear_197_705)" fill-opacity="0.1"/>
<rect x="1.44348" y="1.28906" width="255.788" height="79.2461" rx="9.5" fill="url(#paint1_linear_197_705)" fill-opacity="0.6"/>
<rect x="1.44348" y="1.28906" width="255.788" height="79.2461" rx="9.5" stroke="url(#paint2_linear_197_705)"/>
<rect x="195.344" y="29.4863" width="30" height="6.83" rx="3.415" fill="#8975A2"/>
<rect x="195.344" y="58.5312" width="30" height="6.83" rx="3.415" fill="#B77EFB"/>
<rect x="195.344" y="44.0098" width="49.6606" height="6.83" rx="3.415" fill="#8975A2"/>
<rect x="195.344" y="14.9629" width="39.6577" height="6.83" rx="3.415" fill="#8975A2"/>
<rect x="30.1057" y="16.709" width="50" height="7.83398" rx="3.91699" fill="#8975A2"/>
<path d="M23.3765 19.1031C23.376 19.2376 23.3333 19.3685 23.2545 19.4775C23.1757 19.5865 23.0648 19.6681 22.9373 19.7109L21.806 20.084C21.4508 20.2027 21.1282 20.4027 20.8639 20.6681C20.5996 20.9334 20.4009 21.2568 20.2836 21.6124L19.8924 22.7377C19.8475 22.8632 19.7657 22.9723 19.6577 23.0506C19.5759 23.1095 19.4813 23.1482 19.3816 23.1635C19.2819 23.1788 19.1801 23.1702 19.0844 23.1385C18.9886 23.1068 18.9018 23.0528 18.831 22.9811C18.7601 22.9093 18.7073 22.8218 18.6769 22.7256L18.2978 21.5943C18.1755 21.2376 17.9691 20.9156 17.696 20.6556C17.432 20.3846 17.1086 20.1786 16.7513 20.0539L15.62 19.6748C15.4919 19.6344 15.38 19.5544 15.3005 19.4461C15.2225 19.3362 15.1806 19.2048 15.1806 19.07C15.1806 18.9353 15.2225 18.8038 15.3005 18.6939C15.3804 18.5825 15.4945 18.5001 15.6254 18.4592L16.7507 18.0801C17.1129 17.9583 17.4408 17.7521 17.7075 17.4784C17.9783 17.2118 18.1847 16.8863 18.3092 16.5276L18.6823 15.4144C18.7176 15.2872 18.7937 15.1751 18.8989 15.0955C19.0048 15.0105 19.1363 14.9639 19.272 14.9631C19.4064 14.9598 19.5387 14.9976 19.6511 15.0714C19.7654 15.1431 19.8523 15.2512 19.8978 15.3783L20.2769 16.5276C20.4015 16.8863 20.6079 17.2118 20.8787 17.4784C21.1436 17.7513 21.4694 17.9575 21.8294 18.0801L22.9547 18.4773C23.0814 18.5169 23.1914 18.5973 23.2676 18.706C23.3458 18.8227 23.385 18.9617 23.3765 19.1031ZM17.4373 23.2732C17.437 23.3959 17.3992 23.5156 17.329 23.6162C17.2562 23.7141 17.1555 23.7875 17.0401 23.8268L16.2278 24.0976C16.0002 24.1779 15.7942 24.3097 15.626 24.4827C15.4546 24.6523 15.323 24.8578 15.2409 25.0845L14.9581 25.8908C14.9188 26.0062 14.8453 26.1069 14.7475 26.1797C14.6461 26.2509 14.5253 26.2891 14.4015 26.2891C14.2776 26.2891 14.1568 26.2509 14.0555 26.1797C13.9576 26.1069 13.8842 26.0062 13.8448 25.8908L13.5801 25.0845C13.4978 24.8578 13.366 24.6522 13.1944 24.4827C13.0248 24.3113 12.8193 24.1798 12.5926 24.0976L11.7802 23.8329C11.6641 23.7919 11.5632 23.7163 11.4914 23.6162C11.419 23.5163 11.3791 23.3966 11.3771 23.2732C11.3792 23.1491 11.4197 23.0288 11.493 22.9286C11.5662 22.8284 11.6687 22.7533 11.7863 22.7136L12.5926 22.4488C12.8185 22.3651 13.0235 22.2336 13.1939 22.0632C13.3642 21.8929 13.4957 21.6878 13.5795 21.462L13.8503 20.6677C13.8863 20.5538 13.9554 20.4533 14.0488 20.3788C14.1465 20.3044 14.2645 20.2617 14.3871 20.2563C14.5097 20.2509 14.6311 20.2832 14.7348 20.3487C14.8377 20.4197 14.9172 20.5202 14.9635 20.6376L15.2343 21.462C15.318 21.6878 15.4496 21.8929 15.6199 22.0632C15.7902 22.2336 15.9953 22.3651 16.2211 22.4488L17.0275 22.7317C17.1426 22.7683 17.2422 22.8425 17.3103 22.9423C17.3868 23.0362 17.4311 23.1522 17.4367 23.2732" fill="#B77EFB"/>
<rect x="30.1057" y="38.1172" width="30" height="7.83398" rx="3.91699" fill="#8975A2"/>
<path d="M13.3625 46.0352C13.0875 46.0352 12.8522 45.9373 12.6565 45.7417C12.4609 45.546 12.3629 45.3105 12.3625 45.0352V39.0352C12.3625 38.7602 12.4605 38.5248 12.6565 38.3292C12.8525 38.1335 13.0879 38.0355 13.3625 38.0352H21.3625C21.6375 38.0352 21.873 38.1332 22.069 38.3292C22.265 38.5252 22.3629 38.7605 22.3625 39.0352V45.0352C22.3625 45.3102 22.2647 45.5457 22.069 45.7417C21.8734 45.9377 21.6379 46.0355 21.3625 46.0352H13.3625ZM17.3625 42.5352L21.3625 40.0352V39.0352L17.3625 41.5352L13.3625 39.0352V40.0352L17.3625 42.5352Z" fill="#B77EFB"/>
<rect x="30.1057" y="60.291" width="60" height="7.83398" rx="3.91699" fill="#8975A2"/>
<path d="M17.9459 63.8864C17.5197 63.8864 17.1109 63.7171 16.8095 63.4157C16.5081 63.1143 16.3388 62.7055 16.3388 62.2793C16.3388 61.8531 16.5081 61.4443 16.8095 61.1429C17.1109 60.8415 17.5197 60.6722 17.9459 60.6722C18.3722 60.6722 18.7809 60.8415 19.0823 61.1429C19.3837 61.4443 19.5531 61.8531 19.5531 62.2793C19.5531 62.4903 19.5115 62.6993 19.4307 62.8943C19.35 63.0893 19.2316 63.2665 19.0823 63.4157C18.9331 63.565 18.7559 63.6833 18.5609 63.7641C18.366 63.8449 18.157 63.8864 17.9459 63.8864ZM17.9459 57.7793C16.7524 57.7793 15.6079 58.2534 14.7639 59.0973C13.92 59.9412 13.4459 61.0858 13.4459 62.2793C13.4459 65.6543 17.9459 70.6364 17.9459 70.6364C17.9459 70.6364 22.4459 65.6543 22.4459 62.2793C22.4459 61.0858 21.9718 59.9412 21.1279 59.0973C20.284 58.2534 19.1394 57.7793 17.9459 57.7793Z" fill="#B77EFB"/>
<defs>
<linearGradient id="paint0_linear_197_705" x1="129.34" y1="0.789062" x2="129.34" y2="81.0352" gradientUnits="userSpaceOnUse">
<stop stop-color="white"/>
<stop offset="1" stop-color="white" stop-opacity="0.3"/>
</linearGradient>
<linearGradient id="paint1_linear_197_705" x1="129.338" y1="0.789062" x2="129.338" y2="81.0352" gradientUnits="userSpaceOnUse">
<stop stop-color="#211040" stop-opacity="0"/>
<stop offset="1" stop-color="#13042F"/>
</linearGradient>
<linearGradient id="paint2_linear_197_705" x1="129.338" y1="-3.69677" x2="129.338" y2="78.6489" gradientUnits="userSpaceOnUse">
<stop stop-color="#4F376F"/>
<stop offset="1" stop-color="#270B4B" stop-opacity="0.2"/>
</linearGradient>
</defs>
</svg>
