<svg width="67" height="38" viewBox="0 0 67 38" fill="none" xmlns="http://www.w3.org/2000/svg">
<g clip-path="url(#clip0_190_484)">
<path d="M33.811 36.5274C33.7173 36.6299 33.6032 36.7117 33.4762 36.7677C33.3491 36.8237 33.2118 36.8526 33.073 36.8526C32.9341 36.8526 32.7968 36.8237 32.6697 36.7677C32.5427 36.7117 32.4286 36.6299 32.3349 36.5274L26.82 30.4904C26.234 29.8494 26.69 28.8164 27.559 28.8164H38.585C39.455 28.8164 39.91 29.8494 39.324 30.4904L33.811 36.5274Z" fill="#28204B"/>
<path d="M33.465 36.2122C33.4152 36.2666 33.3547 36.3101 33.2872 36.3399C33.2197 36.3696 33.1467 36.385 33.073 36.385C32.9992 36.385 32.9263 36.3696 32.8588 36.3399C32.7913 36.3101 32.7307 36.2666 32.681 36.2122L27.167 30.1752C27.0972 30.0991 27.0511 30.0043 27.0343 29.9025C27.0175 29.8006 27.0308 29.6961 27.0725 29.6017C27.1142 29.5072 27.1825 29.427 27.2691 29.3708C27.3557 29.3146 27.4567 29.2848 27.56 29.2852H38.586C39.048 29.2852 39.29 29.8352 38.978 30.1752L33.465 36.2122Z" fill="#28204B" stroke="url(#paint0_linear_190_484)" stroke-opacity="0.1" stroke-width="0.938"/>
<path d="M61.146 0.419922H4.99902C2.2376 0.419922 -0.000976562 2.6585 -0.000976562 5.41992V24.9759C-0.000976562 27.7373 2.2376 29.9759 4.99902 29.9759H61.146C63.9074 29.9759 66.146 27.7373 66.146 24.9759V5.41992C66.146 2.6585 63.9074 0.419922 61.146 0.419922Z" fill="#6410FF" fill-opacity="0.1"/>
<path d="M61.146 0.419922H4.99902C2.2376 0.419922 -0.000976562 2.6585 -0.000976562 5.41992V24.9759C-0.000976562 27.7373 2.2376 29.9759 4.99902 29.9759H61.146C63.9074 29.9759 66.146 27.7373 66.146 24.9759V5.41992C66.146 2.6585 63.9074 0.419922 61.146 0.419922Z" fill="url(#paint1_linear_190_484)" fill-opacity="0.1"/>
<path d="M61.146 0.419922H4.99902C2.2376 0.419922 -0.000976562 2.6585 -0.000976562 5.41992V24.9759C-0.000976562 27.7373 2.2376 29.9759 4.99902 29.9759H61.146C63.9074 29.9759 66.146 27.7373 66.146 24.9759V5.41992C66.146 2.6585 63.9074 0.419922 61.146 0.419922Z" fill="url(#paint2_radial_190_484)" fill-opacity="0.1"/>
<path d="M61.147 0.888672H4.99902C2.49662 0.888672 0.468018 2.91727 0.468018 5.41967V24.9757C0.468018 27.4781 2.49662 29.5067 4.99902 29.5067H61.147C63.6494 29.5067 65.678 27.4781 65.678 24.9757V5.41967C65.678 2.91727 63.6494 0.888672 61.147 0.888672Z" stroke="url(#paint3_linear_190_484)" stroke-opacity="0.3" stroke-width="0.938"/>
<path d="M61.147 0.888672H4.99902C2.49662 0.888672 0.468018 2.91727 0.468018 5.41967V24.9757C0.468018 27.4781 2.49662 29.5067 4.99902 29.5067H61.147C63.6494 29.5067 65.678 27.4781 65.678 24.9757V5.41967C65.678 2.91727 63.6494 0.888672 61.147 0.888672Z" stroke="url(#paint4_linear_190_484)" stroke-opacity="0.1" stroke-width="0.938"/>
<path d="M27.174 18.8108C26.355 18.8108 25.699 18.5978 25.204 18.1708C24.708 17.7348 24.404 17.1608 24.291 16.4468H25.518C25.608 16.8828 25.8 17.2238 26.093 17.4718C26.3881 17.7126 26.7593 17.8402 27.14 17.8318C27.575 17.8318 27.94 17.6928 28.232 17.4158C28.532 17.1308 28.682 16.6878 28.682 16.0868C28.682 15.4938 28.536 15.0468 28.243 14.7468C27.951 14.4388 27.575 14.2858 27.117 14.2858C26.81 14.2858 26.536 14.3528 26.295 14.4878C26.055 14.6158 25.882 14.7848 25.777 14.9948H24.697L25.091 10.5928H29.493V11.5728H25.653L26.172 11.3128L25.935 14.3308L25.609 14.2508C25.7687 13.9871 25.9986 13.7732 26.273 13.6328C26.573 13.4668 26.941 13.3848 27.376 13.3848C27.879 13.3848 28.326 13.4938 28.716 13.7108C29.106 13.9288 29.41 14.2408 29.628 14.6458C29.846 15.0508 29.955 15.5318 29.955 16.0868C29.955 16.6568 29.838 17.1458 29.605 17.5508C29.3835 17.9523 29.0462 18.2778 28.637 18.4848C28.224 18.7028 27.737 18.8118 27.174 18.8118V18.8108ZM32.064 18.6988C32.169 17.4228 32.474 16.1688 32.976 14.9388C33.479 13.7078 34.192 12.4918 35.116 11.2908L35.149 11.5718H30.544V10.5918H36.185V11.4598C35.6453 12.2334 35.1636 13.046 34.744 13.8908C34.354 14.6798 34.046 15.4678 33.821 16.2558C33.6013 17.0547 33.458 17.8728 33.393 18.6988H32.064ZM39.777 18.6988V16.5608L39.822 16.3358V11.7078L40.25 11.8318L36.872 16.4028L36.41 15.9638H41.972V16.9438H35.78V16.0318L39.822 10.5938H41.004V18.6998L39.777 18.6988Z" fill="white"/>
</g>
<defs>
<linearGradient id="paint0_linear_190_484" x1="40.738" y1="37.3372" x2="40.415" y2="31.6742" gradientUnits="userSpaceOnUse">
<stop stop-color="white"/>
<stop offset="0.38" stop-color="white" stop-opacity="0"/>
</linearGradient>
<linearGradient id="paint1_linear_190_484" x1="33.073" y1="0.419922" x2="33.073" y2="29.9759" gradientUnits="userSpaceOnUse">
<stop stop-color="white"/>
<stop offset="1" stop-color="white" stop-opacity="0.3"/>
</linearGradient>
<radialGradient id="paint2_radial_190_484" cx="0" cy="0" r="1" gradientUnits="userSpaceOnUse" gradientTransform="translate(33.073 0.419922) rotate(90) scale(29.5556 33.0737)">
<stop stop-color="white" stop-opacity="0.4"/>
<stop offset="1" stop-color="white" stop-opacity="0"/>
</radialGradient>
<linearGradient id="paint3_linear_190_484" x1="25.302" y1="-86.3763" x2="69.622" y2="13.8067" gradientUnits="userSpaceOnUse">
<stop stop-color="white"/>
<stop offset="1" stop-color="white" stop-opacity="0"/>
</linearGradient>
<linearGradient id="paint4_linear_190_484" x1="4.85802" y1="0.419672" x2="5.45202" y2="15.1777" gradientUnits="userSpaceOnUse">
<stop stop-color="white"/>
<stop offset="0.38" stop-color="white" stop-opacity="0"/>
</linearGradient>
<clipPath id="clip0_190_484">
<rect width="67" height="38" fill="white"/>
</clipPath>
</defs>
</svg>
